<svg version="1.1"
      xmlns="http://www.w3.org/2000/svg"
      xmlns:xlink="http://www.w3.org/1999/xlink"  id="snapshot-53167" width="250" height="250" viewBox="0 0 250 250"><desc>This image was made on Patterninja.com</desc><defs>
<!-- image 35857 -->
<g id="transformed-35857" data-image="35857" transform="translate(-117.06501049441026, 127.66498950558973) rotate(57, 117.06501049441026, 117.06501049441026)"><g><svg version="1.1" width="234.13002098882052px" height="234.13002098882052px" viewBox="0 0 234.13002098882052 234.13002098882052"><g id="original-35857"><svg xmlns="http://www.w3.org/2000/svg" id="Layer_1" viewBox="0 0 400 400" xmlns:xlink="http://www.w3.org/1999/xlink" version="1.1" preserveAspectRatio="xMidYMid meet">
  <path d="M225.6 136.7V121c0-9.4-7.6-17-17-17h-20c-9.4 0-17 7.6-17 17v19c0 2.8 2.2 5 5 5s5-2.2 5-5v-19c0-3.9 3.1-7 7-7h20c3.9 0 7 3.1 7 7v13.3c-5.5-1-11.2-1.5-17-1.5-3.3 0-6.5.2-9.8.5-2.7.3-4.7 2.7-4.5 5.5.3 2.7 2.7 4.7 5.5 4.5 2.9-.3 5.8-.4 8.7-.4 46.5 0 84.2 37.8 84.2 84.2 0 46.5-37.8 84.2-84.2 84.2-46.5 0-84.2-37.8-84.2-84.2 0-17.3 5.2-33.9 15-48 9.6-13.8 22.9-24.4 38.5-30.5 2.6-1 3.8-3.9 2.8-6.5s-3.9-3.8-6.5-2.8c-17.5 6.8-32.4 18.6-43.1 34.1-11 15.8-16.8 34.4-16.8 53.7 0 52 42.3 94.2 94.2 94.2 52 0 94.2-42.3 94.2-94.2.2-42.7-28.2-78.8-67-90.4z" fill="rgba(188, 188, 188, 1)" stroke="none"/>
  <path d="M262.4 202.5c.8 1.8 2.7 2.9 4.5 2.9.7 0 1.4-.2 2.1-.5 2.5-1.2 3.6-4.1 2.4-6.6-8.4-17.9-22.5-33.1-39.7-42.7-2.4-1.3-5.5-.5-6.8 1.9-1.3 2.4-.5 5.5 1.9 6.8 15.5 8.6 28.1 22.2 35.6 38.2z" fill="rgba(188, 188, 188, 1)" stroke="none"/>
  <circle cx="216.3" cy="154.6" r="5.9" fill="rgba(188, 188, 188, 1)" stroke="none"/>
  <path d="M183.6 101.3c2.8 0 5-2.2 5-5 0-5.5 4.5-10 10-10s10 4.5 10 10c0 2.8 2.2 5 5 5s5-2.2 5-5c0-11-9-20-20-20s-20 9-20 20c0 2.8 2.2 5 5 5z" fill="rgba(188, 188, 188, 1)" stroke="none"/>
</svg>
</g></svg></g></g>
<!-- /image 35857 -->

<!-- image 71690 -->
<g id="transformed-71690" data-image="71690" transform="translate(8.43044543284607, 18.97044543284599) rotate(341, 118.73955456715393, 118.73955456715402)"><g><svg version="1.1" width="237.47910913430786px" height="237.47910913430803px" viewBox="0 0 237.47910913430786 237.47910913430803"><g id="original-71690"><svg xmlns="http://www.w3.org/2000/svg" viewBox="0 0 400 400" xmlns:xlink="http://www.w3.org/1999/xlink" version="1.1" preserveAspectRatio="xMidYMid meet">
  <path d="M262.7 207.1l-20.1-11.7v-50.8h2.8c8.5 0 15.5-7 15.5-15.5v-42c0-8.5-6.9-15.5-15.5-15.5H110.3c-8.5 0-15.5 6.9-15.5 15.5v42c0 8.5 7 15.5 15.5 15.5h4.3V186c-.3.6-.4 1.3-.4 2s.2 1.4.4 2v41.5c0 9.8 2.2 19.2 6.5 27.9 5.5 11.9 14.4 21.7 25.7 28.3l51.5 30c9.9 5.7 20.8 8.7 32 8.7 5.5 0 11.1-.7 16.5-2.2 16.6-4.4 30.4-14.9 39-29.6 17.8-30.4 7.4-69.7-23.1-87.5zm-157.9-78v-42c0-3 2.5-5.5 5.5-5.5h135.1c3 0 5.5 2.5 5.5 5.5v42c0 3-2.5 5.5-5.5 5.5H110.3c-3 0-5.5-2.5-5.5-5.5zm127.8 15.5V183h-108v-38.5h108zM130.1 255.2c-3.7-7.5-5.5-15.4-5.5-23.7v-2.1c16.1-3.4 32.8 3.7 41.5 18 7.6 12.4 7.7 27.9.4 40.3l-14.8-8.6c-9.4-5.6-16.9-13.8-21.6-23.9zm147 34.4c-7.2 12.4-18.9 21.3-32.9 25-14 3.7-28.5 1.7-40.9-5.5l-28-16.3c9.1-15.6 9-34.9-.6-50.5-10.6-17.3-30.5-26.1-50.1-22.9V193h108v5.2c0 1.8.9 3.4 2.5 4.3l22.6 13.1c25.7 15.2 34.4 48.3 19.4 74z" fill="rgba(185, 185, 185, 1)" stroke="none"/>
  <circle cx="146.5" cy="166.1" r="7.4" fill="rgba(221, 221, 221, 1)" stroke="none"/>
  <circle cx="177.9" cy="166.1" r="7.4" fill="rgba(221, 221, 221, 1)" stroke="none"/>
  <circle cx="210" cy="166.1" r="7.4" fill="rgba(221, 221, 221, 1)" stroke="none"/>
</svg>
</g></svg></g></g>
<!-- /image 71690 -->
</defs><rect x="0" y="0" width="250" height="250" fill="rgba(117, 117, 117, 0)"></rect><use xlink:href="#transformed-35857" transform="translate(-250, -250)"></use><use xlink:href="#transformed-35857" transform="translate(0, -250)"></use><use xlink:href="#transformed-35857" transform="translate(250, -250)"></use><use xlink:href="#transformed-35857" transform="translate(-250, 0)"></use><use xlink:href="#transformed-35857" transform="translate(0, 0)"></use><use xlink:href="#transformed-35857" transform="translate(250, 0)"></use><use xlink:href="#transformed-35857" transform="translate(-250, 250)"></use><use xlink:href="#transformed-35857" transform="translate(0, 250)"></use><use xlink:href="#transformed-35857" transform="translate(250, 250)"></use><use xlink:href="#transformed-71690" transform="translate(-250, -250)"></use><use xlink:href="#transformed-71690" transform="translate(0, -250)"></use><use xlink:href="#transformed-71690" transform="translate(250, -250)"></use><use xlink:href="#transformed-71690" transform="translate(-250, 0)"></use><use xlink:href="#transformed-71690" transform="translate(0, 0)"></use><use xlink:href="#transformed-71690" transform="translate(250, 0)"></use><use xlink:href="#transformed-71690" transform="translate(-250, 250)"></use><use xlink:href="#transformed-71690" transform="translate(0, 250)"></use><use xlink:href="#transformed-71690" transform="translate(250, 250)"></use></svg>